<svg width="240" height="100" viewBox="0 0 240 100" fill="none" xmlns="http://www.w3.org/2000/svg" role="img" aria-label="Little Sweet Photography">
  <defs>
    <linearGradient id="lspGold" x1="0%" y1="0%" x2="100%" y2="100%">
      <stop offset="0%" stop-color="#E8C96A"></stop>
      <stop offset="50%" stop-color="#C9A84C"></stop>
      <stop offset="100%" stop-color="#8B6914"></stop>
    </linearGradient>
    <linearGradient id="lspGoldV" x1="0%" y1="0%" x2="0%" y2="100%">
      <stop offset="0%" stop-color="#E8C96A"></stop>
      <stop offset="100%" stop-color="#A9852E"></stop>
    </linearGradient>
  </defs>

  
  <rect x="14" y="16" width="120" height="68" rx="6" fill="none" stroke="url(#lspGold)" stroke-width="2.5" opacity="0.55"></rect>
  <rect x="106" y="16" width="120" height="68" rx="6" fill="none" stroke="url(#lspGold)" stroke-width="2.5" opacity="0.9"></rect>

  
  <text x="40" y="68" font-family="&#39;Playfair Display&#39;, Georgia, serif" font-size="54" font-weight="700" fill="url(#lspGoldV)">L</text>

  
  <g>
    <circle cx="110" cy="50" r="29" fill="none" stroke="url(#lspGold)" stroke-width="1.5" opacity="0.5"></circle>
    <path d="M118.79,50.92 L136.00,50.00 Q132.52,63.00 123.00,72.52 Z" fill="url(#lspGold)" opacity="0.95"></path>
    <path d="M113.60,58.08 L123.00,72.52 Q110.00,76.00 97.00,72.52 Z" fill="url(#lspGold)" opacity="0.78"></path>
    <path d="M104.80,57.15 L97.00,72.52 Q87.48,63.00 84.00,50.00 Z" fill="url(#lspGold)" opacity="0.62"></path>
    <path d="M101.21,49.08 L84.00,50.00 Q87.48,37.00 97.00,27.48 Z" fill="url(#lspGold)" opacity="0.95"></path>
    <path d="M106.40,41.92 L97.00,27.48 Q110.00,24.00 123.00,27.48 Z" fill="url(#lspGold)" opacity="0.78"></path>
    <path d="M115.20,42.85 L123.00,27.48 Q132.52,37.00 136.00,50.00 Z" fill="url(#lspGold)" opacity="0.62"></path>
    <circle cx="110" cy="50" r="7" fill="#080808"></circle>
  </g>

  
  <text x="178" y="68" font-family="&#39;Playfair Display&#39;, Georgia, serif" font-size="54" font-weight="700" fill="url(#lspGoldV)">P</text>
</svg>